# Blender v2.78 (sub 0) OBJ File: 'arrow.obj'
# www.blender.org
mtllib transportir.mtl
o Плоскость_Плоскость.003
v -0.439156 0.655036 0.173742
v -0.439006 0.608264 0.173006
v -0.439952 0.608045 -0.166480
v -0.439986 0.654805 -0.166531
v -0.439956 0.608013 -0.220365
v -0.440184 0.631357 -0.220181
v -0.440400 0.636646 -0.220254
v -0.440479 0.662374 -0.219971
v -0.439337 0.689267 -0.215183
v -0.439898 0.712727 -0.206484
v -0.439870 0.739227 -0.194627
v -0.440105 0.768002 -0.176644
v -0.440322 0.779016 -0.167826
v -0.439390 0.803215 -0.143607
v -0.439887 0.815004 -0.127369
v -0.439726 0.828815 -0.105565
v -0.439647 0.841024 -0.080087
v -0.439560 0.849567 -0.051312
v -0.439467 0.854115 -0.020347
v -0.439373 0.854494 0.011618
v -0.439280 0.850689 0.043356
v -0.439193 0.842846 0.073646
v -0.439115 0.831267 0.101324
v -0.439088 0.825347 0.110880
v -0.439048 0.816396 0.125328
v -0.438981 0.797351 0.149836
v -0.439359 0.776726 0.169073
v -0.438166 0.775477 0.170653
v -0.438802 0.747688 0.190198
v -0.439140 0.726264 0.204184
v -0.438989 0.691267 0.218490
v -0.438938 0.673779 0.221279
v -0.437230 0.650254 0.224803
v -0.438671 0.608301 0.225669
v -0.440232 0.667759 0.171349
v -0.440095 0.684313 0.162833
v -0.442480 0.696881 0.156295
v -0.439708 0.718835 0.141057
v -0.439269 0.732205 0.132859
v -0.438833 0.754252 0.111294
v -0.439003 0.766085 0.095702
v -0.439204 0.775491 0.075831
v -0.439263 0.784207 0.054981
v -0.439329 0.790112 0.032165
v -0.439398 0.792977 0.008258
v -0.439469 0.792692 -0.015821
v -0.439539 0.789270 -0.039146
v -0.439605 0.782841 -0.060820
v -0.439912 0.777333 -0.080008
v -0.439864 0.764597 -0.099692
v -0.440206 0.751297 -0.115916
v -0.440201 0.731207 -0.133530
v -0.440103 0.709835 -0.145474
v -0.440896 0.683158 -0.157457
vt 0.2349 0.3317
vt 0.2362 0.2296
vt 0.7723 0.2296
vt 0.7722 0.3317
vt 0.9034 0.2297
vt 0.9033 0.2737
vt 0.8968 0.3353
vt 0.8444 0.3741
vt 0.8805 0.4149
vt 0.8673 0.4649
vt 0.8529 0.5131
vt 0.8181 0.5744
vt 0.8043 0.6014
vt 0.7831 0.6283
vt 0.7350 0.6768
vt 0.6855 0.7084
vt 0.6406 0.7344
vt 0.5899 0.7526
vt 0.5354 0.7622
vt 0.4792 0.7630
vt 0.4233 0.7549
vt 0.3700 0.7381
vt 0.3214 0.7134
vt 0.3046 0.7008
vt 0.2645 0.6817
vt 0.2214 0.6410
vt 0.1916 0.6018
vt 0.1731 0.5810
vt 0.1543 0.5475
vt 0.1314 0.4922
vt 0.1252 0.4519
vt 0.1198 0.4101
vt 0.1214 0.3275
vt 0.1206 0.2297
vt 0.2396 0.3616
vt 0.2434 0.4008
vt 0.2432 0.4352
vt 0.2619 0.4728
vt 0.2799 0.5077
vt 0.2998 0.5446
vt 0.3287 0.5731
vt 0.3634 0.5947
vt 0.4009 0.6138
vt 0.4420 0.6267
vt 0.4851 0.6330
vt 0.5285 0.6324
vt 0.5706 0.6250
vt 0.6097 0.6110
vt 0.6421 0.5905
vt 0.6761 0.5644
vt 0.7072 0.5304
vt 0.7314 0.4916
vt 0.7494 0.4563
vt 0.7622 0.3936
vn 1.0000 0.0014 -0.0030
vn 1.0000 -0.0003 -0.0040
vn 1.0000 -0.0004 -0.0041
vn 1.0000 -0.0027 -0.0055
usemtl Материал.009
s 1
f 1/1/1 2/2/2 3/3/3 4/4/1
f 4/4/1 3/3/3 5/5/4 6/6/4 7/7/4 8/8/4 9/9/4 10/10/4 11/11/4 12/12/4 13/13/4 14/14/4 15/15/4 16/16/4 17/17/4 18/18/4 19/19/4 20/20/4 21/21/4 22/22/4 23/23/4 24/24/4 25/25/4 26/26/4 27/27/4 28/28/4 29/29/4 30/30/4 31/31/4 32/32/4 33/33/4 34/34/4 2/2/2 1/1/1 35/35/4 36/36/4 37/37/4 38/38/4 39/39/4 40/40/4 41/41/4 42/42/4 43/43/4 44/44/4 45/45/4 46/46/4 47/47/4 48/48/4 49/49/4 50/50/4 51/51/4 52/52/4 53/53/4 54/54/4
