# Blender v2.79 (sub 0) OBJ File: 'doska.blend'
# www.blender.org
mtllib doska.mtl
o Cube.000
v -0.460204 0.036322 -0.340619
v 0.134973 0.036323 -0.340619
v 0.134973 0.036323 -0.041405
v -0.460205 0.036322 -0.041405
v -0.460204 0.043703 -0.340619
v 0.134973 0.045512 -0.340619
v 0.134973 0.045511 -0.041405
v -0.460204 0.045511 -0.041405
vt 0.945218 0.945217
vt 0.054783 0.945217
vt 0.054783 0.054783
vt 0.945218 0.054783
vt 0.945218 0.945217
vt 0.054783 0.945217
vt 0.054783 0.054783
vt 0.945218 0.054783
vt 0.054783 0.945217
vt 0.054783 0.054783
vt 0.945218 0.054783
vt 0.945218 0.945217
vt 0.054783 0.945217
vt 0.945218 0.054783
vt 0.945218 0.945217
vt 0.054783 0.945217
vt 0.054783 0.054783
vt 0.054783 0.945217
vt 0.054783 0.054783
vt 0.945218 0.054783
vn 0.0000 -1.0000 -0.0000
vn -0.0015 1.0000 -0.0030
vn -0.0000 0.0000 -1.0000
vn 1.0000 -0.0000 0.0000
vn 0.0000 -0.0000 1.0000
vn -1.0000 0.0000 -0.0000
usemtl Материал.001
s off
f 1/1/1 2/2/1 3/3/1 4/4/1
f 5/5/2 8/6/2 7/7/2 6/8/2
f 1/1/3 5/9/3 6/10/3 2/11/3
f 2/12/4 6/13/4 7/7/4 3/14/4
f 3/15/5 7/16/5 8/17/5 4/4/5
f 5/5/6 1/18/6 4/19/6 8/20/6
o Text.001
v -0.721662 0.577038 -0.879346
v -0.721299 0.577838 -0.879346
v -0.720145 0.577838 -0.879346
v -0.719802 0.577038 -0.879346
v -0.719404 0.577038 -0.879346
v -0.720571 0.579769 -0.879346
v -0.720846 0.579769 -0.879346
v -0.722060 0.577038 -0.879346
v -0.721140 0.578189 -0.879346
v -0.720702 0.579172 -0.879346
v -0.720296 0.578189 -0.879346
v -0.721662 0.577038 -0.879218
v -0.721299 0.577838 -0.879218
v -0.720145 0.577838 -0.879218
v -0.719802 0.577038 -0.879218
v -0.719404 0.577038 -0.879218
v -0.720571 0.579769 -0.879218
v -0.720846 0.579769 -0.879218
v -0.722060 0.577038 -0.879218
v -0.721140 0.578189 -0.879218
v -0.720702 0.579172 -0.879218
v -0.720296 0.578189 -0.879218
v -0.721662 0.577038 -0.879218
v -0.721621 0.576975 -0.879282
v -0.721299 0.577838 -0.879218
v -0.721258 0.577775 -0.879282
v -0.720145 0.577838 -0.879218
v -0.720187 0.577775 -0.879282
v -0.719802 0.577038 -0.879218
v -0.719845 0.576975 -0.879282
v -0.719404 0.577038 -0.879218
v -0.719308 0.576975 -0.879282
v -0.720571 0.579769 -0.879218
v -0.720529 0.579833 -0.879282
v -0.720846 0.579769 -0.879218
v -0.720887 0.579833 -0.879282
v -0.722060 0.577038 -0.879218
v -0.722158 0.576975 -0.879282
v -0.721621 0.576975 -0.879282
v -0.721662 0.577038 -0.879346
v -0.721258 0.577775 -0.879282
v -0.721299 0.577838 -0.879346
v -0.720187 0.577775 -0.879282
v -0.720145 0.577838 -0.879346
v -0.719845 0.576975 -0.879282
v -0.719802 0.577038 -0.879346
v -0.719308 0.576975 -0.879282
v -0.719404 0.577038 -0.879346
v -0.720529 0.579833 -0.879282
v -0.720571 0.579769 -0.879346
v -0.720887 0.579833 -0.879282
v -0.720846 0.579769 -0.879346
v -0.722158 0.576975 -0.879282
v -0.722060 0.577038 -0.879346
v -0.721140 0.578189 -0.879218
v -0.721042 0.578252 -0.879282
v -0.720702 0.579172 -0.879218
v -0.720704 0.579011 -0.879282
v -0.720296 0.578189 -0.879218
v -0.720391 0.578252 -0.879282
v -0.721042 0.578252 -0.879282
v -0.721140 0.578189 -0.879346
v -0.720704 0.579011 -0.879282
v -0.720702 0.579172 -0.879346
v -0.720391 0.578252 -0.879282
v -0.720296 0.578189 -0.879346
vn 0.0000 0.0000 -1.0000
vn -0.0002 0.0000 -1.0000
vn 0.0004 0.0000 -1.0000
vn 0.0000 0.0000 1.0000
vn -0.0010 0.0000 1.0000
vn 0.0002 0.0000 1.0000
vn -0.0003 0.0000 1.0000
vn -0.0004 0.0000 1.0000
vn 0.3488 -0.5407 0.7654
vn 0.3489 -0.5406 0.7655
vn 0.3488 -0.5407 0.7655
vn 0.3489 -0.5407 0.7654
vn -0.3530 -0.5347 0.7677
vn -0.3529 -0.5348 0.7677
vn -0.3529 -0.5349 0.7676
vn -0.3530 -0.5349 0.7676
vn 0.4027 -0.2661 0.8758
vn 0.4028 -0.2658 0.8758
vn 0.3531 0.5345 0.7678
vn 0.3531 0.5346 0.7678
vn -0.3502 0.5386 0.7663
vn -0.3501 0.5387 0.7663
vn -0.4012 -0.2607 0.8781
vn -0.4012 -0.2606 0.8781
vn 0.3489 -0.5407 -0.7654
vn 0.3488 -0.5407 -0.7655
vn 0.3489 -0.5406 -0.7655
vn 0.3488 -0.5407 -0.7654
vn -0.3529 -0.5348 -0.7677
vn -0.3530 -0.5347 -0.7677
vn -0.3530 -0.5349 -0.7676
vn -0.3529 -0.5349 -0.7676
vn 0.4032 -0.2660 -0.8756
vn 0.4030 -0.2662 -0.8756
vn 0.3534 0.5345 -0.7677
vn -0.3504 0.5387 -0.7662
vn -0.3505 0.5386 -0.7662
vn -0.4016 -0.2608 -0.8779
vn -0.4015 -0.2608 -0.8779
vn 0.4013 0.2607 0.8780
vn -0.0050 -0.3667 0.9303
vn 0.4013 0.2608 0.8780
vn -0.4042 0.2704 0.8738
vn 0.4013 0.2608 -0.8780
vn -0.0050 -0.3667 -0.9303
vn -0.0051 -0.3667 -0.9303
vn 0.4013 0.2607 -0.8780
vn -0.4042 0.2704 -0.8738
usemtl Material.008
s off
f 13//7 15//7 14//7
f 13//8 18//8 15//8
f 18//7 16//7 15//7
f 13//7 19//7 18//7
f 17//7 16//7 18//7
f 13//9 11//9 19//9
f 11//7 17//7 19//7
f 11//7 10//7 17//7
f 10//7 16//7 17//7
f 13//7 12//7 11//7
f 9//7 16//7 10//7
f 26//10 24//10 25//10
f 29//11 24//11 26//11
f 27//12 29//12 26//12
f 30//10 24//10 29//10
f 27//13 28//13 29//13
f 22//10 24//10 30//10
f 28//10 22//10 30//10
f 21//10 22//10 28//10
f 27//14 21//14 28//14
f 23//10 24//10 22//10
f 27//10 20//10 21//10
s 1
f 32//15 34//16 33//17 31//18
f 34//16 36//19 35//20 33//17
f 36//19 38//21 37//22 35//20
f 38//21 40//23 39//24 37//22
f 40//23 42//25 41//26 39//24
f 42//25 44//27 43//28 41//26
f 44//27 46//29 45//30 43//28
f 46//29 32//15 31//18 45//30
f 48//31 50//32 49//33 47//34
f 50//32 52//35 51//36 49//33
f 52//35 54//37 53//38 51//36
f 54//37 56//39 55//40 53//38
f 56//39 58//41 57//41 55//40
f 58//41 60//42 59//43 57//41
f 60//42 62//44 61//45 59//43
f 62//44 48//31 47//34 61//45
f 64//46 66//47 65//47 63//48
f 66//47 68//49 67//49 65//47
f 68//49 64//46 63//48 67//49
f 70//50 72//51 71//52 69//53
f 72//51 74//54 73//54 71//52
f 74//54 70//50 69//53 73//54
o Text
v -0.867282 0.765973 -1.115683
v -0.866107 0.768712 -1.115683
v -0.866497 0.768712 -1.115683
v -0.867314 0.766805 -1.115683
v -0.868126 0.768712 -1.115683
v -0.868512 0.768712 -1.115683
v -0.867361 0.765973 -1.115683
v -0.867282 0.765973 -1.115556
v -0.866107 0.768712 -1.115556
v -0.866497 0.768712 -1.115556
v -0.867314 0.766805 -1.115556
v -0.868126 0.768712 -1.115556
v -0.868512 0.768712 -1.115556
v -0.867361 0.765973 -1.115556
v -0.867282 0.765973 -1.115556
v -0.867240 0.765909 -1.115619
v -0.866107 0.768712 -1.115556
v -0.866011 0.768776 -1.115619
v -0.866497 0.768712 -1.115556
v -0.866539 0.768776 -1.115619
v -0.867314 0.766805 -1.115556
v -0.867313 0.766967 -1.115619
v -0.868126 0.768712 -1.115556
v -0.868083 0.768776 -1.115619
v -0.868512 0.768712 -1.115556
v -0.868608 0.768776 -1.115619
v -0.867361 0.765973 -1.115556
v -0.867404 0.765909 -1.115619
v -0.867240 0.765909 -1.115619
v -0.867282 0.765973 -1.115683
v -0.866011 0.768776 -1.115619
v -0.866107 0.768712 -1.115683
v -0.866539 0.768776 -1.115619
v -0.866497 0.768712 -1.115683
v -0.867313 0.766967 -1.115619
v -0.867314 0.766805 -1.115683
v -0.868083 0.768776 -1.115619
v -0.868126 0.768712 -1.115683
v -0.868608 0.768776 -1.115619
v -0.868512 0.768712 -1.115683
v -0.867404 0.765909 -1.115619
v -0.867361 0.765973 -1.115683
vn 0.0000 0.0000 -1.0000
vn -0.0004 0.0000 -1.0000
vn 0.0000 0.0000 1.0000
vn -0.0006 0.0000 1.0000
vn 0.0004 0.0000 1.0000
vn 0.3527 -0.5353 0.7675
vn 0.4024 0.2652 0.8762
vn 0.4024 0.2651 0.8762
vn -0.3527 0.5344 0.7681
vn -0.3526 0.5345 0.7681
vn 0.0003 0.3650 0.9310
vn 0.0005 0.3650 0.9310
vn 0.3531 0.5341 0.7682
vn 0.3530 0.5341 0.7682
vn -0.4031 0.2679 0.8750
vn -0.4031 0.2678 0.8750
vn -0.3541 -0.5332 0.7683
vn 0.3530 -0.5353 -0.7673
vn 0.4028 0.2652 -0.8760
vn 0.4027 0.2653 -0.8760
vn 0.3530 -0.5354 -0.7673
vn -0.3530 0.5345 -0.7679
vn -0.3532 0.5344 -0.7679
vn 0.0001 0.3650 -0.9310
vn -0.0002 0.3650 -0.9310
vn 0.3530 0.5341 -0.7682
vn 0.3531 0.5341 -0.7682
vn -0.4035 0.2679 -0.8748
vn -0.4034 0.2680 -0.8748
vn -0.3544 -0.5332 -0.7681
usemtl Material.007
s off
f 75//55 77//55 76//55
f 75//55 78//55 77//55
f 78//55 80//55 79//55
f 78//56 81//56 80//56
f 75//55 81//55 78//55
f 84//57 82//57 83//57
f 85//58 82//58 84//58
f 87//57 85//57 86//57
f 88//59 85//59 87//59
f 88//57 82//57 85//57
s 1
f 90//60 92//61 91//62 89//60
f 92//61 94//63 93//64 91//62
f 94//63 96//65 95//66 93//64
f 96//65 98//67 97//68 95//66
f 98//67 100//69 99//70 97//68
f 100//69 102//71 101//71 99//70
f 102//71 90//60 89//60 101//71
f 104//72 106//73 105//74 103//75
f 106//73 108//76 107//77 105//74
f 108//76 110//78 109//79 107//77
f 110//78 112//80 111//81 109//79
f 112//80 114//82 113//83 111//81
f 114//82 116//84 115//84 113//83
f 116//84 104//72 103//75 115//84
