# Blender v2.79 (sub 0) OBJ File: 'shtativ2.blend'
# www.blender.org
mtllib shtativ_gotov.mtl
o Cube.003_Cube.000
v -0.171408 0.422014 -1.384235
v -0.171408 0.422014 -0.964853
v -0.171408 0.434572 -1.384235
v -0.171408 0.434572 -0.964853
v -0.155654 0.422014 -1.384235
v -0.155654 0.422014 -0.964853
v -0.155654 0.434572 -1.384235
v -0.155654 0.434572 -0.964853
v -0.299124 0.114639 -0.947207
v -0.299124 0.114639 -1.085630
v -0.026130 0.114639 -1.085630
v -0.026130 0.114639 -0.947207
v -0.299124 0.121893 -0.947207
v -0.299124 0.121893 -1.085630
v -0.026130 0.121893 -1.085630
v -0.026130 0.121893 -0.947207
v -0.173020 0.121455 -0.957255
v -0.173020 0.121455 -0.971098
v -0.154820 0.121455 -0.971098
v -0.154820 0.121455 -0.957255
v -0.173020 0.447883 -0.957255
v -0.173020 0.447883 -0.971097
v -0.154821 0.447883 -0.971097
v -0.154821 0.447883 -0.957255
vt 1.931926 1.931927
vt -0.931928 1.931927
vt -0.931928 -0.931927
vt 1.931926 -0.931927
vt 1.931926 1.931927
vt -0.931928 1.931927
vt -0.931928 -0.931927
vt 1.931926 -0.931927
vt 1.931926 1.931927
vt -0.931928 1.931927
vt -0.931928 -0.931927
vt 1.931926 -0.931927
vt 1.931926 1.931927
vt -0.931928 1.931927
vt -0.931928 -0.931927
vt 1.931926 -0.931927
vt -0.931928 1.931927
vt -0.931928 -0.931927
vt 1.931926 1.931927
vt 1.931926 -0.931927
vt 1.931926 1.931927
vt -0.931928 1.931927
vt -0.931928 -0.931927
vt 1.931926 -0.931927
vt 1.931926 1.931927
vt -0.931928 1.931927
vt -0.931928 -0.931927
vt 1.931926 -0.931927
vt -0.931928 1.931927
vt -0.931928 -0.931927
vt 1.931926 -0.931927
vt 1.931926 1.931927
vt -0.931928 1.931927
vt 1.931926 -0.931927
vt 1.931926 1.931927
vt -0.931928 1.931927
vt -0.931928 -0.931927
vt -0.931928 1.931927
vt -0.931928 -0.931927
vt 1.931926 -0.931927
vt 1.931926 1.931927
vt -0.931928 1.931927
vt -0.931928 -0.931927
vt 1.931926 -0.931927
vt 1.931926 1.931927
vt -0.931928 1.931927
vt -0.931928 -0.931927
vt 1.931926 -0.931927
vt -0.931928 1.931927
vt -0.931928 -0.931927
vt 1.931926 -0.931927
vt 1.931926 1.931927
vt -0.931928 1.931927
vt 1.931926 -0.931927
vt 1.931926 1.931927
vt -0.931928 1.931927
vt -0.931928 -0.931927
vt -0.931928 1.931927
vt -0.931928 -0.931927
vt 1.931926 -0.931927
vn -1.0000 0.0000 0.0000
vn 0.0000 1.0000 0.0000
vn 1.0000 0.0000 0.0000
vn 0.0000 -1.0000 -0.0000
vn 0.0000 0.0000 -1.0000
vn 0.0000 0.0000 1.0000
usemtl Material.024
s off
f 1/1/1 2/2/1 4/3/1 3/4/1
f 3/5/2 4/6/2 8/7/2 7/8/2
f 7/9/3 8/10/3 6/11/3 5/12/3
f 5/13/4 6/14/4 2/15/4 1/16/4
f 3/5/5 7/17/5 5/18/5 1/16/5
f 8/19/6 4/6/6 2/15/6 6/20/6
f 9/21/4 10/22/4 11/23/4 12/24/4
f 13/25/2 16/26/2 15/27/2 14/28/2
f 9/21/1 13/29/1 14/30/1 10/31/1
f 10/32/5 14/33/5 15/27/5 11/34/5
f 11/35/3 15/36/3 16/37/3 12/24/3
f 13/25/6 9/38/6 12/39/6 16/40/6
f 17/41/4 18/42/4 19/43/4 20/44/4
f 21/45/2 24/46/2 23/47/2 22/48/2
f 17/41/1 21/49/1 22/50/1 18/51/1
f 18/52/5 22/53/5 23/47/5 19/54/5
f 19/55/3 23/56/3 24/57/3 20/44/3
f 21/45/6 17/58/6 20/59/6 24/60/6
o Text.001
v -0.877882 0.762827 -1.130222
v -0.877520 0.763627 -1.130222
v -0.876366 0.763627 -1.130222
v -0.876023 0.762827 -1.130222
v -0.875625 0.762827 -1.130222
v -0.876792 0.765558 -1.130222
v -0.877066 0.765558 -1.130222
v -0.878280 0.762827 -1.130222
v -0.877361 0.763977 -1.130222
v -0.876923 0.764961 -1.130222
v -0.876517 0.763977 -1.130222
v -0.877882 0.762827 -1.130095
v -0.877520 0.763627 -1.130095
v -0.876366 0.763627 -1.130095
v -0.876023 0.762827 -1.130095
v -0.875625 0.762827 -1.130095
v -0.876792 0.765558 -1.130095
v -0.877066 0.765558 -1.130095
v -0.878280 0.762827 -1.130095
v -0.877361 0.763977 -1.130095
v -0.876923 0.764961 -1.130095
v -0.876517 0.763977 -1.130095
v -0.877882 0.762827 -1.130095
v -0.877841 0.762763 -1.130159
v -0.877520 0.763627 -1.130095
v -0.877479 0.763563 -1.130159
v -0.876366 0.763627 -1.130095
v -0.876408 0.763563 -1.130159
v -0.876023 0.762827 -1.130095
v -0.876065 0.762763 -1.130159
v -0.875625 0.762827 -1.130095
v -0.875529 0.762763 -1.130159
v -0.876792 0.765558 -1.130095
v -0.876749 0.765621 -1.130159
v -0.877066 0.765558 -1.130095
v -0.877108 0.765621 -1.130159
v -0.878280 0.762827 -1.130095
v -0.878378 0.762763 -1.130159
v -0.877841 0.762763 -1.130159
v -0.877882 0.762827 -1.130222
v -0.877479 0.763563 -1.130159
v -0.877520 0.763627 -1.130222
v -0.876408 0.763563 -1.130159
v -0.876366 0.763627 -1.130222
v -0.876065 0.762763 -1.130159
v -0.876023 0.762827 -1.130222
v -0.875529 0.762763 -1.130159
v -0.875625 0.762827 -1.130222
v -0.876749 0.765621 -1.130159
v -0.876792 0.765558 -1.130222
v -0.877108 0.765621 -1.130159
v -0.877066 0.765558 -1.130222
v -0.878378 0.762763 -1.130159
v -0.878280 0.762827 -1.130222
v -0.877361 0.763977 -1.130095
v -0.877263 0.764041 -1.130159
v -0.876923 0.764961 -1.130095
v -0.876925 0.764799 -1.130159
v -0.876517 0.763977 -1.130095
v -0.876612 0.764041 -1.130159
v -0.877263 0.764041 -1.130159
v -0.877361 0.763977 -1.130222
v -0.876925 0.764799 -1.130159
v -0.876923 0.764961 -1.130222
v -0.876612 0.764041 -1.130159
v -0.876517 0.763977 -1.130222
vn 0.0000 0.0000 -1.0000
vn 0.0006 0.0000 -1.0000
vn 0.0004 0.0000 -1.0000
vn 0.0000 0.0000 1.0000
vn 0.0002 0.0000 1.0000
vn -0.0006 0.0000 1.0000
vn -0.0004 0.0000 1.0000
vn 0.3487 -0.5403 0.7658
vn 0.3488 -0.5404 0.7657
vn 0.3487 -0.5404 0.7657
vn 0.3488 -0.5403 0.7658
vn -0.3530 -0.5346 0.7678
vn -0.3529 -0.5346 0.7678
vn -0.3529 -0.5344 0.7680
vn -0.3530 -0.5343 0.7680
vn 0.4024 -0.2656 0.8761
vn 0.4025 -0.2654 0.8761
vn 0.3529 0.5344 0.7680
vn 0.3529 0.5345 0.7680
vn -0.3499 0.5384 0.7666
vn -0.3498 0.5385 0.7666
vn -0.4007 -0.2605 0.8784
vn -0.4008 -0.2604 0.8784
vn 0.3485 -0.5403 -0.7659
vn 0.3484 -0.5405 -0.7658
vn 0.3485 -0.5404 -0.7658
vn 0.3484 -0.5404 -0.7659
vn -0.3527 -0.5347 -0.7679
vn -0.3528 -0.5346 -0.7679
vn -0.3527 -0.5343 -0.7681
vn -0.3526 -0.5344 -0.7681
vn 0.4022 -0.2653 -0.8763
vn 0.4020 -0.2655 -0.8763
vn 0.3526 0.5347 -0.7680
vn 0.3526 0.5346 -0.7680
vn -0.3495 0.5387 -0.7666
vn -0.3496 0.5386 -0.7666
vn -0.4004 -0.2603 -0.8785
vn -0.4004 -0.2604 -0.8785
vn 0.4010 0.2605 0.8782
vn -0.0050 -0.3667 0.9303
vn -0.0049 -0.3667 0.9303
vn 0.4010 0.2606 0.8782
vn -0.4038 0.2703 0.8740
vn 0.4010 0.2606 -0.8782
vn -0.0049 -0.3667 -0.9303
vn 0.4010 0.2605 -0.8782
vn -0.4037 0.2703 -0.8740
usemtl Material.008
s off
f 29//7 31//7 30//7
f 29//7 34//7 31//7
f 34//7 32//7 31//7
f 29//8 35//8 34//8
f 33//7 32//7 34//7
f 29//9 27//9 35//9
f 27//7 33//7 35//7
f 27//7 26//7 33//7
f 26//7 32//7 33//7
f 29//7 28//7 27//7
f 25//7 32//7 26//7
f 42//10 40//10 41//10
f 45//10 40//10 42//10
f 43//11 45//11 42//11
f 46//10 40//10 45//10
f 43//12 44//12 45//12
f 38//10 40//10 46//10
f 44//10 38//10 46//10
f 37//10 38//10 44//10
f 43//13 37//13 44//13
f 39//10 40//10 38//10
f 43//10 36//10 37//10
s 1
f 48//14 50//15 49//16 47//17
f 50//15 52//18 51//19 49//16
f 52//18 54//20 53//21 51//19
f 54//20 56//22 55//23 53//21
f 56//22 58//24 57//25 55//23
f 58//24 60//26 59//27 57//25
f 60//26 62//28 61//29 59//27
f 62//28 48//14 47//17 61//29
f 64//30 66//31 65//32 63//33
f 66//31 68//34 67//35 65//32
f 68//34 70//36 69//37 67//35
f 70//36 72//38 71//39 69//37
f 72//38 74//40 73//41 71//39
f 74//40 76//42 75//43 73//41
f 76//42 78//44 77//45 75//43
f 78//44 64//30 63//33 77//45
f 80//46 82//47 81//48 79//49
f 82//47 84//50 83//50 81//48
f 84//50 80//46 79//49 83//50
f 86//51 88//52 87//52 85//53
f 88//52 90//54 89//54 87//52
f 90//54 86//51 85//53 89//54
o Text
v -0.876799 0.771799 -1.130222
v -0.875625 0.774538 -1.130222
v -0.876015 0.774538 -1.130222
v -0.876831 0.772631 -1.130222
v -0.877643 0.774538 -1.130222
v -0.878030 0.774538 -1.130222
v -0.876879 0.771799 -1.130222
v -0.876799 0.771799 -1.130095
v -0.875625 0.774538 -1.130095
v -0.876015 0.774538 -1.130095
v -0.876831 0.772631 -1.130095
v -0.877643 0.774538 -1.130095
v -0.878030 0.774538 -1.130095
v -0.876879 0.771799 -1.130095
v -0.876799 0.771799 -1.130095
v -0.876758 0.771735 -1.130159
v -0.875625 0.774538 -1.130095
v -0.875528 0.774602 -1.130159
v -0.876015 0.774538 -1.130095
v -0.876057 0.774602 -1.130159
v -0.876831 0.772631 -1.130095
v -0.876831 0.772793 -1.130159
v -0.877643 0.774538 -1.130095
v -0.877601 0.774602 -1.130159
v -0.878030 0.774538 -1.130095
v -0.878125 0.774602 -1.130159
v -0.876879 0.771799 -1.130095
v -0.876921 0.771735 -1.130159
v -0.876758 0.771735 -1.130159
v -0.876799 0.771799 -1.130222
v -0.875528 0.774602 -1.130159
v -0.875625 0.774538 -1.130222
v -0.876057 0.774602 -1.130159
v -0.876015 0.774538 -1.130222
v -0.876831 0.772793 -1.130159
v -0.876831 0.772631 -1.130222
v -0.877601 0.774602 -1.130159
v -0.877643 0.774538 -1.130222
v -0.878125 0.774602 -1.130159
v -0.878030 0.774538 -1.130222
v -0.876921 0.771735 -1.130159
v -0.876879 0.771799 -1.130222
vn 0.0000 0.0000 -1.0000
vn 0.0006 0.0000 -1.0000
vn 0.0000 0.0000 1.0000
vn 0.0006 0.0000 1.0000
vn 0.3526 -0.5349 0.7678
vn 0.4023 0.2652 0.8762
vn 0.4024 0.2651 0.8762
vn -0.3529 0.5345 0.7679
vn -0.3527 0.5346 0.7679
vn 0.0001 0.3652 0.9309
vn 0.0004 0.3652 0.9309
vn 0.3531 0.5339 0.7683
vn 0.3530 0.5340 0.7683
vn -0.4030 0.2677 0.8751
vn -0.4031 0.2676 0.8751
vn -0.3541 -0.5328 0.7686
vn -0.3540 -0.5329 0.7686
vn 0.3523 -0.5350 -0.7679
vn 0.4021 0.2652 -0.8763
vn 0.4020 0.2654 -0.8763
vn -0.3523 0.5349 -0.7679
vn -0.3525 0.5348 -0.7679
vn 0.0004 0.3652 -0.9309
vn 0.0001 0.3652 -0.9309
vn 0.3525 0.5340 -0.7685
vn 0.3526 0.5339 -0.7685
vn -0.4027 0.2675 -0.8753
vn -0.4026 0.2676 -0.8753
vn -0.3537 -0.5329 -0.7687
usemtl Material.007
s off
f 91//55 93//55 92//55
f 91//56 94//56 93//56
f 94//55 96//55 95//55
f 94//55 97//55 96//55
f 91//55 97//55 94//55
f 100//57 98//57 99//57
f 101//58 98//58 100//58
f 103//57 101//57 102//57
f 104//57 101//57 103//57
f 104//57 98//57 101//57
s 1
f 106//59 108//60 107//61 105//59
f 108//60 110//62 109//63 107//61
f 110//62 112//64 111//65 109//63
f 112//64 114//66 113//67 111//65
f 114//66 116//68 115//69 113//67
f 116//68 118//70 117//71 115//69
f 118//70 106//59 105//59 117//71
f 120//72 122//73 121//74 119//72
f 122//73 124//75 123//76 121//74
f 124//75 126//77 125//78 123//76
f 126//77 128//79 127//80 125//78
f 128//79 130//81 129//82 127//80
f 130//81 132//83 131//83 129//82
f 132//83 120//72 119//72 131//83
