# Blender v2.78 (sub 0) OBJ File: 'sphere.obj'
# www.blender.org
mtllib cube.mtl
o Cube_Cube.000
v 0.163457 0.001046 -0.001322
v 0.163457 0.001046 0.001557
v 0.163457 -0.000941 0.001557
v 0.163457 -0.000941 -0.001322
v 0.160768 0.001046 0.001557
v 0.160768 -0.000941 0.001557
v 0.160768 0.001046 -0.001322
v 0.160768 -0.000941 -0.001322
vt 0.3303 0.3873
vt 0.5955 0.3873
vt 0.5955 0.6524
vt 0.3303 0.6524
vt 0.4124 0.3873
vt 0.6776 0.3873
vt 0.6776 0.6524
vt 0.4124 0.6524
vt 0.3303 0.3873
vt 0.0651 0.3873
vt 0.0651 0.6524
vt 0.3303 0.6524
vt 0.4124 0.3873
vt 0.1472 0.3873
vt 0.1472 0.6524
vt 0.4124 0.6524
vt 0.4124 0.3714
vt 0.4124 0.1062
vt 0.6776 0.1062
vt 0.6776 0.3714
vt 0.4124 0.3714
vt 0.4124 0.1062
vt 0.1472 0.1062
vt 0.1472 0.3714
vn 1.0000 0.0000 0.0000
vn 0.0000 -0.0000 1.0000
vn -1.0000 0.0000 0.0000
vn 0.0000 0.0000 -1.0000
vn 0.0000 1.0000 0.0000
vn 0.0000 -1.0000 0.0000
usemtl Material.006
s 1
f 1/1/1 2/2/1 3/3/1 4/4/1
f 2/5/2 5/6/2 6/7/2 3/8/2
f 5/9/3 7/10/3 8/11/3 6/12/3
f 7/13/4 1/14/4 4/15/4 8/16/4
f 2/17/5 1/18/5 7/19/5 5/20/5
f 6/21/6 8/22/6 4/23/6 3/24/6
