# Blender v2.79 (sub 0) OBJ File: ''
# www.blender.org
mtllib cube.mtl
o Cube_Cube.003
v 0.624354 4.124694 -0.005053
v 0.624354 4.114587 -0.005053
v 0.624354 4.124694 0.005053
v 0.624354 4.114587 0.005053
v 0.614083 4.124694 -0.005053
v 0.614083 4.114587 -0.005053
v 0.614083 4.124694 0.005053
v 0.614083 4.114587 0.005053
vt 0.257800 0.401281
vt 0.991327 0.401281
vt 0.991327 1.134808
vt 0.257800 1.134808
vt 0.484907 0.401281
vt 1.218434 0.401281
vt 1.218434 1.134808
vt 0.484907 1.134808
vt 0.257800 0.401281
vt -0.475727 0.401281
vt -0.475727 1.134808
vt 0.257800 1.134808
vt 0.484907 0.401281
vt -0.248620 0.401281
vt -0.248620 1.134808
vt 0.484907 1.134808
vt 0.484907 0.357401
vt 0.484907 -0.376126
vt 1.218434 -0.376126
vt 1.218434 0.357401
vt 0.484907 0.357401
vt 0.484907 -0.376126
vt -0.248620 -0.376126
vt -0.248620 0.357401
vn 1.0000 0.0000 0.0000
vn 0.0000 0.0000 1.0000
vn -1.0000 0.0000 0.0000
vn 0.0000 0.0000 -1.0000
vn 0.0000 1.0000 0.0000
vn 0.0000 -1.0000 0.0000
usemtl Material.003
s off
f 1/1/1 3/2/1 4/3/1 2/4/1
f 3/5/2 7/6/2 8/7/2 4/8/2
f 7/9/3 5/10/3 6/11/3 8/12/3
f 5/13/4 1/14/4 2/15/4 6/16/4
f 3/17/5 1/18/5 5/19/5 7/20/5
f 8/21/6 6/22/6 2/23/6 4/24/6
