# Blender v2.78 (sub 0) OBJ File: 'sphere.obj'
# www.blender.org
mtllib down_rope.mtl
o Cylinder.000_Cylinder.000
v 0.162081 -1.256902 -0.000140
v 0.162081 -0.627721 -0.000139
v 0.163006 -0.627721 0.000244
v 0.163006 -1.256902 0.000243
v 0.163389 -0.627721 0.001168
v 0.163389 -1.256902 0.001168
v 0.163006 -0.627721 0.002093
v 0.163006 -1.256902 0.002093
v 0.162081 -0.627721 0.002476
v 0.162081 -1.256902 0.002476
v 0.161156 -0.627721 0.002093
v 0.161156 -1.256902 0.002093
v 0.160773 -0.627721 0.001168
v 0.160773 -1.256902 0.001168
v 0.161156 -0.627721 0.000244
v 0.161156 -1.256902 0.000243
vt 0.2725 -23.2458
vt 0.2725 24.3666
vt 0.0707 24.3666
vt 0.0707 -23.2458
vt 0.8779 24.3666
vt 0.8779 -23.2458
vt 0.6761 -23.2458
vt 0.6761 24.3666
vt 0.4743 -23.2458
vt 0.4743 24.3666
vt 0.0707 -23.2458
vt 0.0707 24.3666
vt 0.2725 24.3666
vt 0.2725 -23.2458
vt 0.4743 24.3666
vt 0.4743 -23.2458
vt 0.4743 24.3666
vt 0.4743 -23.2458
vt 0.6761 -23.2458
vt 0.6761 24.3666
vt 0.8779 16.8942
vt 0.9615 16.9468
vt 0.8779 16.9994
vt 0.6761 17.0212
vt 0.4743 16.9994
vt 0.3907 16.9468
vt 0.4743 16.8942
vt 0.6761 16.8725
vt 0.8779 -23.2458
vt 0.8779 24.3666
vt 0.4743 -23.2458
vt 0.4743 24.3666
vt 0.8779 16.9994
vt 0.9615 16.9468
vt 0.8779 16.8942
vt 0.6761 16.8725
vt 0.4743 16.8942
vt 0.3907 16.9468
vt 0.4743 16.9994
vt 0.6761 17.0212
vn 0.0000 -0.6303 -0.7764
vn 0.0000 0.6303 -0.7764
vn 0.5489 0.6303 -0.5490
vn 0.5490 -0.6302 -0.5491
vn 0.7764 0.6302 -0.0001
vn 0.7764 -0.6303 -0.0001
vn 0.5490 0.6302 0.5490
vn 0.5490 -0.6302 0.5490
vn 0.0000 0.6303 0.7764
vn 0.0000 -0.6303 0.7764
vn -0.5490 0.6302 0.5490
vn -0.5490 -0.6302 0.5490
vn -0.7764 0.6302 -0.0001
vn -0.7764 -0.6303 -0.0001
vn -0.5489 0.6303 -0.5490
vn -0.5490 -0.6302 -0.5491
usemtl Material.004
s 1
f 1/1/1 2/2/2 3/3/3 4/4/4
f 4/5/4 3/6/3 5/7/5 6/8/6
f 6/8/6 5/7/5 7/9/7 8/10/8
f 8/11/8 7/12/7 9/13/9 10/14/10
f 10/14/10 9/13/9 11/15/11 12/16/12
f 12/17/12 11/18/11 13/19/13 14/20/14
f 3/21/3 2/22/2 15/23/15 13/24/13 11/25/11 9/26/9 7/27/7 5/28/5
f 14/20/14 13/19/13 15/29/15 16/30/16
f 16/31/16 15/32/15 2/2/2 1/1/1
f 16/33/16 1/34/1 4/35/4 6/36/6 8/37/8 10/38/10 12/39/12 14/40/14
