# Blender v2.79 (sub 0) OBJ File: ''
# www.blender.org
mtllib down_rope.mtl
o Cylinder.001
v 0.619284 0.920658 -0.004996
v 0.622817 0.920658 -0.003533
v 0.624280 0.920658 0.000000
v 0.622817 0.920658 0.003533
v 0.619284 0.920658 0.004996
v 0.615751 0.920658 0.003533
v 0.614288 0.920658 -0.000000
v 0.615751 0.920658 -0.003533
v 0.619284 4.120657 -0.004996
v 0.622817 4.120657 -0.003533
v 0.624280 4.120657 0.000000
v 0.622817 4.120657 0.003533
v 0.619284 4.120657 0.004996
v 0.615751 4.120657 0.003533
v 0.614288 4.120657 -0.000000
v 0.615751 4.120657 -0.003533
vt 0.605704 0.447863
vt 0.886611 0.331507
vt 1.002966 0.050600
vt 0.886611 -0.230306
vt 0.605704 -0.346662
vt 0.324798 -0.230306
vt 0.208442 0.050600
vt 0.324798 0.331507
vt 0.324798 0.495795
vt 0.324798 0.893057
vt 0.605704 0.893057
vt 0.605704 0.495795
vt 0.359686 0.495795
vt 0.359686 0.893057
vt 0.640593 0.893057
vt 0.640593 0.495795
vt 0.078780 0.495795
vt 0.078780 0.893057
vt 0.605704 0.495795
vt 0.605704 0.893057
vt 0.324798 0.893057
vt 0.324798 0.495795
vt 0.092087 0.495795
vt 0.092087 0.893057
vt -0.188820 0.893057
vt -0.188820 0.495795
vt 0.359686 0.495795
vt 0.359686 0.893057
vt 0.078780 0.893057
vt 0.078780 0.495795
vt 0.640593 0.495795
vt 0.640593 0.893057
vt 0.886611 0.893057
vt 0.886611 0.495795
vt 0.324798 1.126031
vt 0.208442 0.845124
vt 0.324798 0.564218
vt 0.605704 0.447863
vt 0.886611 0.564218
vt 1.002966 0.845124
vt 0.886611 1.126031
vt 0.605704 1.242387
vn 0.0000 -0.6302 -0.7764
vn 0.5490 -0.6302 -0.5490
vn 0.7764 -0.6302 0.0000
vn 0.5490 -0.6302 0.5490
vn 0.0000 -0.6302 0.7764
vn -0.5490 -0.6302 0.5490
vn -0.7764 -0.6302 0.0000
vn -0.5490 -0.6302 -0.5490
vn -0.5490 0.6302 -0.5490
vn 0.0000 0.6302 -0.7764
vn -0.7764 0.6302 0.0000
vn -0.5490 0.6302 0.5490
vn 0.0000 0.6302 0.7764
vn 0.5490 0.6302 0.5490
vn 0.7764 0.6302 0.0000
vn 0.5490 0.6302 -0.5490
usemtl Material.006
s 1
f 1/1/1 2/2/2 3/3/3 4/4/4 5/5/5 6/6/6 7/7/7 8/8/8
f 8/9/8 16/10/9 9/11/10 1/12/1
f 7/13/7 15/14/11 16/15/9 8/16/8
f 6/17/6 14/18/12 15/14/11 7/13/7
f 5/19/5 13/20/13 14/21/12 6/22/6
f 4/23/4 12/24/14 13/25/13 5/26/5
f 3/27/3 11/28/15 12/29/14 4/30/4
f 2/31/2 10/32/16 11/28/15 3/27/3
f 1/12/1 9/11/10 10/33/16 2/34/2
f 16/35/9 15/36/11 14/37/12 13/38/13 12/39/14 11/40/15 10/41/16 9/42/10
