# Blender v2.79 (sub 7) OBJ File: ''
# www.blender.org
mtllib Pula2.mtl
o PULA_Цилиндр.003
v -0.000000 -0.025146 -0.007845
v -0.000000 -0.025146 -0.038677
v 0.012573 -0.021777 -0.007845
v 0.012573 -0.021777 -0.038677
v 0.021777 -0.012573 -0.007845
v 0.021777 -0.012573 -0.038677
v 0.025146 -0.000000 -0.007845
v 0.025146 0.000000 -0.038677
v 0.021777 0.012573 -0.007845
v 0.021777 0.012573 -0.038677
v 0.012573 0.021777 -0.007845
v 0.012573 0.021777 -0.038677
v 0.000000 0.025146 -0.007845
v 0.000000 0.025146 -0.038677
v -0.012573 0.021777 -0.007845
v -0.012573 0.021777 -0.038677
v -0.021777 0.012573 -0.007845
v -0.021777 0.012573 -0.038677
v -0.025146 0.000000 -0.007845
v -0.025146 0.000000 -0.038677
v -0.021777 -0.012573 -0.007845
v -0.021777 -0.012573 -0.038677
v -0.012573 -0.021777 -0.007845
v -0.012573 -0.021777 -0.038677
v 0.008869 -0.015362 -0.073759
v -0.000000 -0.017739 -0.073759
v 0.015362 -0.008869 -0.073759
v 0.017739 0.000000 -0.073759
v 0.015362 0.008869 -0.073759
v 0.008869 0.015362 -0.073759
v 0.000000 0.017739 -0.073759
v -0.008869 0.015362 -0.073759
v -0.015362 0.008869 -0.073759
v -0.017739 0.000000 -0.073759
v -0.015362 -0.008869 -0.073759
v -0.008869 -0.015362 -0.073759
v 0.005599 -0.009697 -0.090779
v -0.000000 -0.011197 -0.090779
v 0.009697 -0.005599 -0.090779
v 0.011197 0.000000 -0.090779
v 0.009697 0.005599 -0.090779
v 0.005599 0.009697 -0.090779
v 0.000000 0.011197 -0.090779
v -0.005599 0.009697 -0.090779
v -0.009697 0.005599 -0.090779
v -0.011197 0.000000 -0.090779
v -0.009697 -0.005599 -0.090779
v -0.005599 -0.009697 -0.090779
v 0.004403 -0.007626 -0.096959
v -0.000000 -0.008805 -0.096959
v 0.007626 -0.004403 -0.096959
v 0.008805 0.000000 -0.096959
v 0.007626 0.004403 -0.096959
v 0.004403 0.007626 -0.096959
v 0.000000 0.008805 -0.096959
v -0.004403 0.007626 -0.096959
v -0.007626 0.004403 -0.096959
v -0.008805 0.000000 -0.096959
v -0.007626 -0.004403 -0.096959
v -0.004403 -0.007626 -0.096959
v 0.001303 -0.002257 -0.107242
v -0.000000 -0.002606 -0.107242
v 0.002257 -0.001303 -0.107242
v 0.002606 0.000000 -0.107242
v 0.002257 0.001303 -0.107242
v 0.001303 0.002257 -0.107242
v 0.000000 0.002607 -0.107242
v -0.001303 0.002257 -0.107242
v -0.002257 0.001303 -0.107242
v -0.002606 0.000000 -0.107242
v -0.002257 -0.001303 -0.107242
v -0.001303 -0.002257 -0.107242
v -0.000000 -0.023475 -0.005896
v 0.011737 -0.020330 -0.005896
v 0.020330 -0.011737 -0.005896
v 0.023475 -0.000000 -0.005896
v 0.020330 0.011737 -0.005896
v 0.011737 0.020330 -0.005896
v 0.000000 0.023475 -0.005896
v -0.011737 0.020330 -0.005896
v -0.020330 0.011737 -0.005896
v -0.023475 0.000000 -0.005896
v -0.020330 -0.011737 -0.005896
v -0.011737 -0.020330 -0.005896
v -0.000000 -0.023475 -0.002972
v 0.011737 -0.020330 -0.002972
v 0.020330 -0.011737 -0.002972
v 0.023475 -0.000000 -0.002972
v 0.020330 0.011737 -0.002972
v 0.011737 0.020330 -0.002972
v 0.000000 0.023475 -0.002972
v -0.011737 0.020330 -0.002972
v -0.020330 0.011737 -0.002972
v -0.023475 0.000000 -0.002972
v -0.020330 -0.011737 -0.002972
v -0.011737 -0.020330 -0.002972
v -0.000000 -0.025492 -0.001022
v 0.012746 -0.022077 -0.001022
v 0.022077 -0.012746 -0.001022
v 0.025492 -0.000000 -0.001022
v 0.022077 0.012746 -0.001022
v 0.012746 0.022077 -0.001022
v 0.000000 0.025492 -0.001022
v -0.012746 0.022077 -0.001022
v -0.022077 0.012746 -0.001022
v -0.025492 0.000000 -0.001022
v -0.022077 -0.012746 -0.001022
v -0.012746 -0.022077 -0.001022
v -0.000000 -0.025492 0.035690
v 0.012746 -0.022077 0.035690
v 0.022077 -0.012746 0.035690
v 0.025492 -0.000000 0.035690
v 0.022077 0.012746 0.035690
v 0.012746 0.022077 0.035690
v 0.000000 0.025492 0.035690
v -0.012746 0.022077 0.035690
v -0.022077 0.012746 0.035690
v -0.025492 0.000000 0.035690
v -0.022077 -0.012746 0.035690
v -0.012746 -0.022077 0.035690
vn 0.0000 -0.9441 0.3297
vn 0.0000 -0.9948 -0.1021
vn 0.4974 -0.8615 -0.1021
vn 0.4720 -0.8176 0.3297
vn 0.8615 -0.4974 -0.1021
vn 0.8176 -0.4720 0.3297
vn 0.9948 0.0000 -0.1021
vn 0.9441 0.0000 0.3297
vn 0.8615 0.4974 -0.1021
vn 0.8176 0.4720 0.3297
vn 0.4974 0.8615 -0.1021
vn 0.4720 0.8176 0.3297
vn 0.0000 0.9948 -0.1021
vn 0.0000 0.9441 0.3297
vn -0.4974 0.8615 -0.1021
vn -0.4720 0.8176 0.3297
vn -0.8615 0.4974 -0.1021
vn -0.8176 0.4720 0.3297
vn -0.9948 0.0000 -0.1021
vn -0.9441 0.0000 0.3297
vn -0.8615 -0.4974 -0.1021
vn -0.8176 -0.4720 0.3297
vn 0.0000 0.9600 -0.2801
vn -0.4800 0.8314 -0.2801
vn -0.4974 -0.8615 -0.1021
vn -0.4720 -0.8176 0.3297
vn -0.8055 0.4651 0.3672
vn -0.4651 0.8055 0.3672
vn 0.0000 -0.9600 -0.2801
vn -0.4800 -0.8314 -0.2801
vn -0.4665 -0.8080 -0.3598
vn 0.0000 -0.9330 -0.3598
vn 0.4800 0.8314 -0.2801
vn 0.8314 0.4800 -0.2801
vn 0.9600 0.0000 -0.2801
vn 0.4800 -0.8314 -0.2801
vn 0.8314 -0.4800 -0.2801
vn -0.8314 -0.4800 -0.2801
vn -0.9600 0.0000 -0.2801
vn -0.8314 0.4800 -0.2801
vn 0.4665 0.8080 -0.3598
vn 0.8080 0.4665 -0.3598
vn 0.7799 0.4503 -0.4347
vn 0.4503 0.7799 -0.4347
vn 0.4665 -0.8080 -0.3598
vn 0.8080 -0.4665 -0.3598
vn -0.8080 0.4665 -0.3598
vn -0.9330 0.0000 -0.3598
vn 0.0000 0.9330 -0.3598
vn 0.9330 0.0000 -0.3598
vn -0.8080 -0.4665 -0.3598
vn -0.4665 0.8080 -0.3598
vn 0.4754 0.2745 -0.8358
vn 0.2745 0.4754 -0.8358
vn -0.4503 -0.7799 -0.4347
vn 0.0000 -0.9006 -0.4347
vn 0.4503 -0.7799 -0.4347
vn 0.7799 -0.4503 -0.4347
vn -0.7799 0.4503 -0.4347
vn -0.9006 0.0000 -0.4347
vn 0.0000 0.9006 -0.4347
vn 0.9006 0.0000 -0.4347
vn -0.7799 -0.4503 -0.4347
vn -0.4503 0.7799 -0.4347
vn 0.2745 -0.4754 -0.8358
vn 0.0000 -0.5489 -0.8358
vn -0.2745 -0.4754 -0.8358
vn -0.4754 -0.2745 -0.8358
vn -0.5489 0.0000 -0.8358
vn -0.4754 0.2745 -0.8358
vn -0.2745 0.4754 -0.8358
vn 0.0000 0.5489 -0.8358
vn 0.5489 0.0000 -0.8358
vn 0.4754 -0.2745 -0.8358
vn 0.8055 -0.4651 0.3672
vn 0.9301 0.0000 0.3672
vn 0.9094 0.0000 -0.4158
vn 0.7876 -0.4547 -0.4158
vn 0.0000 0.9301 0.3672
vn 0.4651 0.8055 0.3672
vn 0.8055 0.4651 0.3672
vn 0.0000 -0.9301 0.3672
vn -0.4651 -0.8055 0.3672
vn 0.4651 -0.8055 0.3672
vn -0.8055 -0.4651 0.3672
vn -0.9301 0.0000 0.3672
vn 0.9293 0.0000 -0.3692
vn 0.8048 -0.4647 -0.3692
vn -0.7876 -0.4547 -0.4158
vn -0.9094 0.0000 -0.4158
vn -0.4547 0.7876 -0.4158
vn 0.0000 0.9094 -0.4158
vn 0.7876 0.4547 -0.4158
vn -0.4547 -0.7876 -0.4158
vn 0.4547 -0.7876 -0.4158
vn 0.0000 -0.9094 -0.4158
vn -0.7876 0.4547 -0.4158
vn 0.4547 0.7876 -0.4158
vn 0.4647 0.8048 -0.3692
vn 0.0000 0.9293 -0.3692
vn 0.0000 0.7571 0.6532
vn 0.3786 0.6557 0.6532
vn -0.8048 -0.4647 -0.3692
vn -0.9293 0.0000 -0.3692
vn -0.4647 0.8048 -0.3692
vn 0.8048 0.4647 -0.3692
vn -0.4647 -0.8048 -0.3692
vn 0.4647 -0.8048 -0.3692
vn 0.0000 -0.9293 -0.3692
vn -0.8048 0.4647 -0.3692
vn 0.0000 -0.7571 0.6532
vn 0.3786 -0.6557 0.6532
vn 0.6557 -0.3786 0.6532
vn 0.7571 0.0000 0.6532
vn 0.6557 0.3786 0.6532
vn -0.3786 0.6557 0.6532
vn -0.6557 0.3786 0.6532
vn -0.7571 0.0000 0.6532
vn -0.6557 -0.3786 0.6532
vn -0.3786 -0.6557 0.6532
usemtl PULA
s 1
f 1//1 2//2 4//3 3//4
f 3//4 4//3 6//5 5//6
f 5//6 6//5 8//7 7//8
f 7//8 8//7 10//9 9//10
f 9//10 10//9 12//11 11//12
f 11//12 12//11 14//13 13//14
f 13//14 14//13 16//15 15//16
f 15//16 16//15 18//17 17//18
f 17//18 18//17 20//19 19//20
f 19//20 20//19 22//21 21//22
f 16//15 14//13 31//23 32//24
f 21//22 22//21 24//25 23//26
f 23//26 24//25 2//2 1//1
f 15//16 17//18 81//27 80//28
f 26//29 36//30 48//31 38//32
f 14//13 12//11 30//33 31//23
f 12//11 10//9 29//34 30//33
f 10//9 8//7 28//35 29//34
f 2//2 24//25 36//30 26//29
f 4//3 2//2 26//29 25//36
f 8//7 6//5 27//37 28//35
f 24//25 22//21 35//38 36//30
f 6//5 4//3 25//36 27//37
f 22//21 20//19 34//39 35//38
f 20//19 18//17 33//40 34//39
f 18//17 16//15 32//24 33//40
f 42//41 41//42 53//43 54//44
f 27//37 25//36 37//45 39//46
f 34//39 33//40 45//47 46//48
f 31//23 30//33 42//41 43//49
f 28//35 27//37 39//46 40//50
f 35//38 34//39 46//48 47//51
f 32//24 31//23 43//49 44//52
f 29//34 28//35 40//50 41//42
f 36//30 35//38 47//51 48//31
f 25//36 26//29 38//32 37//45
f 33//40 32//24 44//52 45//47
f 30//33 29//34 41//42 42//41
f 54//44 53//43 65//53 66//54
f 38//32 48//31 60//55 50//56
f 39//46 37//45 49//57 51//58
f 46//48 45//47 57//59 58//60
f 43//49 42//41 54//44 55//61
f 40//50 39//46 51//58 52//62
f 47//51 46//48 58//60 59//63
f 44//52 43//49 55//61 56//64
f 41//42 40//50 52//62 53//43
f 48//31 47//51 59//63 60//55
f 37//45 38//32 50//56 49//57
f 45//47 44//52 56//64 57//59
f 61//65 62//66 72//67 71//68 70//69 69//70 68//71 67//72 66//54 65//53 64//73 63//74
f 50//56 60//55 72//67 62//66
f 51//58 49//57 61//65 63//74
f 58//60 57//59 69//70 70//69
f 55//61 54//44 66//54 67//72
f 52//62 51//58 63//74 64//73
f 59//63 58//60 70//69 71//68
f 56//64 55//61 67//72 68//71
f 53//43 52//62 64//73 65//53
f 60//55 59//63 71//68 72//67
f 49//57 50//56 62//66 61//65
f 57//59 56//64 68//71 69//70
f 75//75 76//76 88//77 87//78
f 13//14 15//16 80//28 79//79
f 11//12 13//14 79//79 78//80
f 9//10 11//12 78//80 77//81
f 7//8 9//10 77//81 76//76
f 23//26 1//1 73//82 84//83
f 1//1 3//4 74//84 73//82
f 5//6 7//8 76//76 75//75
f 21//22 23//26 84//83 83//85
f 3//4 5//6 75//75 74//84
f 19//20 21//22 83//85 82//86
f 17//18 19//20 82//86 81//27
f 87//78 88//77 100//87 99//88
f 82//86 83//85 95//89 94//90
f 79//79 80//28 92//91 91//92
f 76//76 77//81 89//93 88//77
f 83//85 84//83 96//94 95//89
f 73//82 74//84 86//95 85//96
f 80//28 81//27 93//97 92//91
f 77//81 78//80 90//98 89//93
f 84//83 73//82 85//96 96//94
f 74//84 75//75 87//78 86//95
f 81//27 82//86 94//90 93//97
f 78//80 79//79 91//92 90//98
f 102//99 103//100 115//101 114//102
f 94//90 95//89 107//103 106//104
f 91//92 92//91 104//105 103//100
f 88//77 89//93 101//106 100//87
f 95//89 96//94 108//107 107//103
f 85//96 86//95 98//108 97//109
f 92//91 93//97 105//110 104//105
f 89//93 90//98 102//99 101//106
f 96//94 85//96 97//109 108//107
f 86//95 87//78 99//88 98//108
f 93//97 94//90 106//104 105//110
f 90//98 91//92 103//100 102//99
f 109//111 110//112 111//113 112//114 113//115 114//102 115//101 116//116 117//117 118//118 119//119 120//120
f 99//88 100//87 112//114 111//113
f 106//104 107//103 119//119 118//118
f 103//100 104//105 116//116 115//101
f 100//87 101//106 113//115 112//114
f 107//103 108//107 120//120 119//119
f 97//109 98//108 110//112 109//111
f 104//105 105//110 117//117 116//116
f 101//106 102//99 114//102 113//115
f 108//107 97//109 109//111 120//120
f 98//108 99//88 111//113 110//112
f 105//110 106//104 118//118 117//117
