# Blender v2.79 (sub 0) OBJ File: ''
# www.blender.org
mtllib palka.mtl
o Cylinder.004
v 0.775395 1.066342 0.000000
v 0.775395 1.066693 0.003567
v -0.775395 1.066693 0.003567
v -0.775395 1.066342 0.000000
v 0.775395 1.067734 0.006998
v -0.775395 1.067734 0.006998
v 0.775395 1.069424 0.010159
v -0.775395 1.069424 0.010159
v 0.775395 1.071698 0.012930
v -0.775395 1.071698 0.012930
v 0.775395 1.074469 0.015204
v -0.775395 1.074469 0.015204
v 0.775395 1.077630 0.016894
v -0.775395 1.077630 0.016894
v 0.775395 1.081061 0.017935
v -0.775395 1.081061 0.017935
v 0.775395 1.084628 0.018286
v -0.775395 1.084628 0.018286
v 0.775395 1.088195 0.017935
v -0.775395 1.088196 0.017935
v 0.775395 1.091626 0.016894
v -0.775395 1.091626 0.016894
v 0.775395 1.094787 0.015204
v -0.775395 1.094787 0.015204
v 0.775395 1.097558 0.012930
v -0.775395 1.097558 0.012930
v 0.775395 1.099832 0.010159
v -0.775395 1.099832 0.010159
v 0.775395 1.101522 0.006998
v -0.775395 1.101522 0.006998
v 0.775395 1.102563 0.003567
v -0.775395 1.102563 0.003567
v 0.775395 1.102914 0.000000
v -0.775395 1.102914 0.000000
v 0.775395 1.102563 -0.003567
v -0.775395 1.102563 -0.003567
v 0.775395 1.101522 -0.006998
v -0.775395 1.101522 -0.006998
v 0.775395 1.099832 -0.010159
v -0.775395 1.099832 -0.010159
v 0.775395 1.097558 -0.012930
v -0.775395 1.097558 -0.012930
v 0.775395 1.094787 -0.015204
v -0.775395 1.094787 -0.015204
v 0.775395 1.091626 -0.016894
v -0.775395 1.091626 -0.016894
v 0.775395 1.088195 -0.017935
v -0.775395 1.088196 -0.017935
v 0.775395 1.084628 -0.018286
v -0.775395 1.084628 -0.018286
v 0.775395 1.081061 -0.017935
v -0.775395 1.081061 -0.017935
v 0.775395 1.077630 -0.016894
v -0.775395 1.077630 -0.016894
v 0.775395 1.074469 -0.015204
v -0.775395 1.074469 -0.015204
v 0.775395 1.071698 -0.012930
v -0.775395 1.071698 -0.012930
v 0.775395 1.069424 -0.010159
v -0.775395 1.069424 -0.010159
v 0.775395 1.067734 -0.006998
v -0.775395 1.067734 -0.006998
v -0.775395 1.066693 -0.003567
v 0.775395 1.066693 -0.003567
vn 0.6857 -0.7279 0.0000
vn 0.6857 -0.7139 0.1420
vn -0.6857 -0.7139 0.1420
vn -0.6857 -0.7279 0.0000
vn 0.6857 -0.6725 0.2786
vn -0.6857 -0.6725 0.2786
vn 0.6857 -0.6052 0.4044
vn -0.6857 -0.6052 0.4044
vn 0.6857 -0.5147 0.5147
vn -0.6857 -0.5147 0.5147
vn 0.6857 -0.4044 0.6052
vn -0.6857 -0.4044 0.6052
vn 0.6857 -0.2786 0.6725
vn -0.6857 -0.2786 0.6725
vn 0.6857 -0.1420 0.7139
vn -0.6857 -0.1420 0.7139
vn 0.6857 -0.0000 0.7279
vn -0.6857 -0.0000 0.7279
vn 0.6857 0.1420 0.7139
vn -0.6857 0.1420 0.7139
vn 0.6857 0.2786 0.6725
vn -0.6857 0.2786 0.6724
vn 0.6857 0.4044 0.6052
vn -0.6857 0.4044 0.6052
vn 0.6857 0.5147 0.5147
vn -0.6857 0.5147 0.5147
vn 0.6857 0.6052 0.4044
vn -0.6857 0.6052 0.4044
vn 0.6857 0.6725 0.2786
vn -0.6857 0.6725 0.2786
vn 0.6857 0.7139 0.1420
vn -0.6857 0.7139 0.1420
vn 0.6857 0.7279 0.0000
vn -0.6857 0.7279 0.0000
vn 0.6857 0.7139 -0.1420
vn -0.6857 0.7139 -0.1420
vn 0.6857 0.6725 -0.2786
vn -0.6857 0.6725 -0.2786
vn 0.6857 0.6052 -0.4044
vn -0.6857 0.6052 -0.4044
vn 0.6857 0.5147 -0.5147
vn -0.6857 0.5147 -0.5147
vn 0.6857 0.4044 -0.6052
vn -0.6857 0.4044 -0.6052
vn 0.6857 0.2786 -0.6725
vn -0.6857 0.2786 -0.6725
vn 0.6857 0.1420 -0.7139
vn -0.6857 0.1420 -0.7139
vn 0.6857 -0.0000 -0.7279
vn -0.6857 -0.0000 -0.7279
vn 0.6857 -0.1420 -0.7139
vn -0.6857 -0.1420 -0.7139
vn 0.6857 -0.2786 -0.6725
vn -0.6857 -0.2786 -0.6725
vn 0.6857 -0.4044 -0.6052
vn -0.6857 -0.4044 -0.6052
vn 0.6857 -0.5147 -0.5147
vn -0.6857 -0.5147 -0.5147
vn 0.6857 -0.6052 -0.4044
vn -0.6857 -0.6052 -0.4044
vn 0.6857 -0.6725 -0.2786
vn -0.6857 -0.6725 -0.2786
vn -0.6857 -0.7139 -0.1420
vn 0.6857 -0.7139 -0.1420
usemtl None.003
s 1
f 1//1 2//2 3//3 4//4
f 2//2 5//5 6//6 3//3
f 5//5 7//7 8//8 6//6
f 7//7 9//9 10//10 8//8
f 9//9 11//11 12//12 10//10
f 11//11 13//13 14//14 12//12
f 13//13 15//15 16//16 14//14
f 15//15 17//17 18//18 16//16
f 17//17 19//19 20//20 18//18
f 19//19 21//21 22//22 20//20
f 21//21 23//23 24//24 22//22
f 23//23 25//25 26//26 24//24
f 25//25 27//27 28//28 26//26
f 27//27 29//29 30//30 28//28
f 29//29 31//31 32//32 30//30
f 31//31 33//33 34//34 32//32
f 33//33 35//35 36//36 34//34
f 35//35 37//37 38//38 36//36
f 37//37 39//39 40//40 38//38
f 39//39 41//41 42//42 40//40
f 41//41 43//43 44//44 42//42
f 43//43 45//45 46//46 44//44
f 45//45 47//47 48//48 46//46
f 47//47 49//49 50//50 48//48
f 49//49 51//51 52//52 50//50
f 51//51 53//53 54//54 52//52
f 53//53 55//55 56//56 54//54
f 55//55 57//57 58//58 56//56
f 57//57 59//59 60//60 58//58
f 59//59 61//61 62//62 60//60
f 3//3 6//6 8//8 10//10 12//12 14//14 16//16 18//18 20//20 22//22 24//24 26//26 28//28 30//30 32//32 34//34 36//36 38//38 40//40 42//42 44//44 46//46 48//48 50//50 52//52 54//54 56//56 58//58 60//60 62//62 63//63 4//4
f 61//61 64//64 63//63 62//62
f 64//64 1//1 4//4 63//63
f 1//1 64//64 61//61 59//59 57//57 55//55 53//53 51//51 49//49 47//47 45//45 43//43 41//41 39//39 37//37 35//35 33//33 31//31 29//29 27//27 25//25 23//23 21//21 19//19 17//17 15//15 13//13 11//11 9//9 7//7 5//5 2//2
