# Blender v2.79 (sub 0) OBJ File: ''
# www.blender.org
mtllib cube.mtl
o Cube_Cube.003
v 0.624354 4.124694 -0.005052
v 0.624354 4.124694 0.005948
v 0.624354 4.114587 0.005948
v 0.624354 4.114587 -0.005052
v 0.614083 4.124694 0.005948
v 0.614083 4.114587 0.005948
v 0.614083 4.124694 -0.005052
v 0.614083 4.114587 -0.005052
vt 0.330303 0.387272
vt 0.595478 0.387272
vt 0.595478 0.652448
vt 0.330303 0.652448
vt 0.412404 0.387272
vt 0.677579 0.387272
vt 0.677579 0.652448
vt 0.412404 0.652448
vt 0.330303 0.387272
vt 0.065128 0.387272
vt 0.065128 0.652448
vt 0.330303 0.652448
vt 0.412404 0.387272
vt 0.147229 0.387272
vt 0.147229 0.652448
vt 0.412404 0.652448
vt 0.412404 0.371410
vt 0.412404 0.106234
vt 0.677579 0.106234
vt 0.677579 0.371410
vt 0.412404 0.371410
vt 0.412404 0.106234
vt 0.147229 0.106234
vt 0.147229 0.371410
vn 1.0000 0.0000 0.0000
vn 0.0000 -0.0000 1.0000
vn -1.0000 0.0000 0.0000
vn 0.0000 0.0000 -1.0000
vn 0.0000 1.0000 0.0000
vn 0.0000 -1.0000 0.0000
usemtl Material.003
s 1
f 1/1/1 2/2/1 3/3/1 4/4/1
f 2/5/2 5/6/2 6/7/2 3/8/2
f 5/9/3 7/10/3 8/11/3 6/12/3
f 7/13/4 1/14/4 4/15/4 8/16/4
f 2/17/5 1/18/5 7/19/5 5/20/5
f 6/21/6 8/22/6 4/23/6 3/24/6
