# Blender v2.79 (sub 0) OBJ File: ''
# www.blender.org
mtllib up_rope.mtl
o Cylinder.001
v 0.619284 4.120604 -0.004995
v 0.619284 7.320603 -0.004995
v 0.622817 7.320603 -0.003532
v 0.622817 4.120604 -0.003532
v 0.624280 7.320603 0.000001
v 0.624280 4.120604 0.000001
v 0.622817 7.320603 0.003534
v 0.622817 4.120604 0.003534
v 0.619284 7.320603 0.004997
v 0.619284 4.120604 0.004997
v 0.615751 7.320603 0.003534
v 0.615751 4.120604 0.003534
v 0.614288 7.320603 0.000001
v 0.614288 4.120604 0.000001
v 0.615751 7.320603 -0.003532
v 0.615751 4.120604 -0.003532
vt 0.272488 -23.245831
vt 0.272488 24.366631
vt 0.070677 24.366631
vt 0.070677 -23.245831
vt 0.877891 24.366631
vt 0.877905 -23.245819
vt 0.676094 -23.245819
vt 0.676094 24.366631
vt 0.474298 -23.245819
vt 0.474284 24.366631
vt 0.070677 -23.245831
vt 0.070677 24.366631
vt 0.272488 24.366631
vt 0.272488 -23.245831
vt 0.474284 24.366631
vt 0.474284 -23.245831
vt 0.474284 24.366631
vt 0.474298 -23.245819
vt 0.676094 -23.245819
vt 0.676094 24.366631
vt 0.877891 16.894247
vt 0.961467 16.946821
vt 0.877891 16.999388
vt 0.676094 17.021151
vt 0.474284 16.999388
vt 0.390721 16.946821
vt 0.474284 16.894247
vt 0.676094 16.872484
vt 0.877905 -23.245819
vt 0.877891 24.366631
vt 0.474284 -23.245831
vt 0.474284 24.366631
vt 0.877891 16.999388
vt 0.961467 16.946821
vt 0.877891 16.894247
vt 0.676094 16.872484
vt 0.474284 16.894247
vt 0.390721 16.946821
vt 0.474284 16.999388
vt 0.676094 17.021151
vn -0.0000 -0.6303 -0.7764
vn -0.0000 0.6303 -0.7764
vn 0.5490 0.6302 -0.5490
vn 0.5490 -0.6302 -0.5490
vn 0.7764 0.6303 0.0000
vn 0.7764 -0.6303 -0.0000
vn 0.5490 0.6302 0.5490
vn 0.5490 -0.6303 0.5490
vn -0.0000 0.6303 0.7764
vn -0.0000 -0.6303 0.7764
vn -0.5490 0.6302 0.5490
vn -0.5490 -0.6303 0.5490
vn -0.7764 0.6303 0.0000
vn -0.7764 -0.6303 -0.0000
vn -0.5490 0.6303 -0.5490
vn -0.5490 -0.6302 -0.5490
usemtl Material.003
s 1
f 1/1/1 2/2/2 3/3/3 4/4/4
f 4/5/4 3/6/3 5/7/5 6/8/6
f 6/8/6 5/7/5 7/9/7 8/10/8
f 8/11/8 7/12/7 9/13/9 10/14/10
f 10/14/10 9/13/9 11/15/11 12/16/12
f 12/17/12 11/18/11 13/19/13 14/20/14
f 3/21/3 2/22/2 15/23/15 13/24/13 11/25/11 9/26/9 7/27/7 5/28/5
f 14/20/14 13/19/13 15/29/15 16/30/16
f 16/31/16 15/32/15 2/2/2 1/1/1
f 16/33/16 1/34/1 4/35/4 6/36/6 8/37/8 10/38/10 12/39/12 14/40/14
