# Blender v2.78 (sub 0) OBJ File: 'stand.obj'
# www.blender.org
mtllib stand2o.mtl
o Plane.016
v -0.036649 1.004605 -0.067516
v -0.036649 1.299603 -0.067516
v -0.028055 1.299603 -0.066676
v -0.028055 1.004605 -0.066676
v -0.019791 1.299603 -0.064191
v -0.019791 1.004605 -0.064191
v -0.012175 1.299603 -0.060155
v -0.012175 1.004605 -0.060155
v -0.005500 1.299603 -0.054723
v -0.005500 1.004605 -0.054723
v -0.000021 1.299603 -0.048103
v -0.000021 1.004605 -0.048103
v 0.004050 1.299603 -0.040552
v 0.004050 1.004605 -0.040552
v 0.006556 1.299603 -0.032358
v 0.006556 1.004605 -0.032358
v 0.007403 1.299603 -0.023837
v 0.007403 1.004605 -0.023837
v 0.006556 1.299603 -0.015315
v 0.006556 1.004605 -0.015315
v 0.004050 1.299603 -0.007121
v 0.004050 1.004605 -0.007121
v -0.000021 1.299603 0.000430
v -0.000021 1.004605 0.000430
v -0.005500 1.299603 0.007049
v -0.005500 1.004605 0.007049
v -0.012175 1.299603 0.012481
v -0.012175 1.004605 0.012481
v -0.019791 1.299603 0.016517
v -0.019791 1.004605 0.016517
v -0.028055 1.299603 0.019003
v -0.028055 1.004605 0.019003
v -0.036649 1.299603 0.019842
v -0.036649 1.004605 0.019842
v -0.045243 1.299603 0.019003
v -0.045243 1.004605 0.019003
v -0.053507 1.299603 0.016517
v -0.053507 1.004605 0.016517
v -0.061123 1.299603 0.012481
v -0.061123 1.004605 0.012481
v -0.067798 1.299603 0.007049
v -0.067798 1.004605 0.007049
v -0.073277 1.299603 0.000430
v -0.073277 1.004605 0.000430
v -0.077347 1.299603 -0.007121
v -0.077347 1.004605 -0.007121
v -0.079854 1.299603 -0.015316
v -0.079854 1.004605 -0.015316
v -0.080700 1.299603 -0.023837
v -0.080700 1.004605 -0.023837
v -0.079854 1.299603 -0.032358
v -0.079854 1.004605 -0.032358
v -0.077347 1.299603 -0.040552
v -0.077347 1.004605 -0.040552
v -0.073277 1.299603 -0.048103
v -0.073277 1.004605 -0.048103
v -0.067798 1.299603 -0.054723
v -0.067798 1.004605 -0.054723
v -0.061123 1.299603 -0.060155
v -0.061123 1.004605 -0.060155
v -0.053506 1.299603 -0.064191
v -0.053506 1.004605 -0.064191
v -0.000021 1.821037 -0.048103
v 0.004050 1.821037 -0.040552
v -0.045243 1.299603 -0.066676
v -0.045243 1.004605 -0.066676
v -0.019791 0.038913 -0.064191
v -0.028055 0.038913 -0.066676
v -0.028055 1.821037 -0.066676
v -0.036649 1.821037 -0.067516
v -0.045243 1.821037 -0.066676
v -0.053506 1.821037 -0.064191
v -0.061123 1.821037 -0.060155
v -0.067798 1.821037 -0.054723
v -0.073277 1.821037 -0.048103
v -0.077347 1.821037 -0.040552
v -0.079854 1.821037 -0.032358
v -0.080700 1.821037 -0.023837
v -0.079854 1.821037 -0.015316
v -0.077347 1.821037 -0.007121
v -0.073277 1.821037 0.000430
v -0.067798 1.821037 0.007049
v -0.061123 1.821037 0.012481
v -0.053507 1.821037 0.016518
v -0.045243 1.821037 0.019003
v -0.036649 1.821037 0.019842
v -0.028055 1.821037 0.019003
v -0.019791 1.821037 0.016518
v -0.012175 1.821037 0.012481
v -0.005500 1.821037 0.007049
v -0.000021 1.821037 0.000430
v 0.004050 1.821037 -0.007121
v 0.006556 1.821037 -0.015315
v 0.007403 1.821037 -0.023837
v 0.006556 1.821037 -0.032358
v -0.005500 1.821037 -0.054723
v -0.012175 1.821037 -0.060155
v -0.019791 1.821037 -0.064191
v -0.036649 0.038913 -0.067516
v -0.012175 0.038913 -0.060155
v -0.005500 0.038913 -0.054723
v -0.000021 0.038913 -0.048104
v 0.004050 0.038913 -0.040552
v 0.006556 0.038913 -0.032358
v 0.007403 0.038913 -0.023837
v 0.006556 0.038913 -0.015315
v 0.004050 0.038913 -0.007122
v -0.000021 0.038913 0.000430
v -0.005500 0.038913 0.007049
v -0.012175 0.038913 0.012481
v -0.019791 0.038913 0.016517
v -0.028055 0.038913 0.019003
v -0.036649 0.038913 0.019842
v -0.045243 0.038913 0.019003
v -0.053507 0.038913 0.016517
v -0.061123 0.038913 0.012481
v -0.067798 0.038913 0.007049
v -0.073277 0.038913 0.000430
v -0.077347 0.038913 -0.007122
v -0.079854 0.038913 -0.015316
v -0.080700 0.038913 -0.023837
v -0.079854 0.038913 -0.032358
v -0.077347 0.038913 -0.040552
v -0.073277 0.038913 -0.048104
v -0.067798 0.038913 -0.054723
v -0.061123 0.038913 -0.060155
v -0.053506 0.038913 -0.064191
v -0.045243 0.038913 -0.066676
vt 0.0000 0.0000
vt 0.0000 0.0000
vt 0.0000 0.0000
vt 0.0000 0.0000
vt 0.0000 0.0000
vt 0.0000 0.0000
vt 0.0000 0.0000
vt 0.0000 0.0000
vt 0.0000 0.0000
vt 0.0000 0.0000
vt 0.0000 0.0000
vt 0.0000 0.0000
vt 0.0000 0.0000
vt 0.0000 0.0000
vt 0.0000 0.0000
vt 0.0000 0.0000
vt 0.0000 0.0000
vt 0.0000 0.0000
vt 0.0000 0.0000
vt 0.0000 0.0000
vt 0.0000 0.0000
vt 0.0000 0.0000
vt 0.0000 0.0000
vt 0.0000 0.0000
vt 0.0000 0.0000
vt 0.0000 0.0000
vt 0.0000 0.0000
vt 0.0000 0.0000
vt 0.0000 0.0000
vt 0.0000 0.0000
vt 0.0000 0.0000
vt 0.0000 0.0000
vt 0.0000 0.0000
vt 0.0000 0.0000
vt 0.0000 0.0000
vt 0.0000 0.0000
vt 0.0000 0.0000
vt 0.0000 0.0000
vt 0.0000 0.0000
vt 0.0000 0.0000
vt 0.0000 0.0000
vt 0.0000 0.0000
vt 0.0000 0.0000
vt 0.0000 0.0000
vt 0.0000 0.0000
vt 0.0000 0.0000
vt 0.0000 0.0000
vt 0.0000 0.0000
vt 0.0000 0.0000
vt 0.0000 0.0000
vt 0.0000 0.0000
vt 0.0000 0.0000
vt 0.0000 0.0000
vt 0.0000 0.0000
vt 0.0000 0.0000
vt 0.0000 0.0000
vt 0.0000 0.0000
vt 0.0000 0.0000
vt 0.0000 0.0000
vt 0.0000 0.0000
vt 0.0000 0.0000
vt 0.0000 0.0000
vt 0.0000 0.0000
vt 0.0000 0.0000
vt 0.0000 0.0000
vt 0.0000 0.0000
vt 0.0000 0.0000
vt 0.0000 0.0000
vt 0.0000 0.0000
vt 0.0000 0.0000
vt 0.0000 0.0000
vt 0.0000 0.0000
vt 0.0000 0.0000
vt 0.0000 0.0000
vt 0.0000 0.0000
vt 0.0000 0.0000
vt 0.0000 0.0000
vt 0.0000 0.0000
vt 0.0000 0.0000
vt 0.0000 0.0000
vt 0.0000 0.0000
vt 0.0000 0.0000
vt 0.0000 0.0000
vt 0.0000 0.0000
vt 0.0000 0.0000
vt 0.0000 0.0000
vt 0.0000 0.0000
vt 0.0000 0.0000
vt 0.0000 0.0000
vt 0.0000 0.0000
vt 0.0000 0.0000
vt 0.0000 0.0000
vt 0.0000 0.0000
vt 0.0000 0.0000
vt 0.0000 0.0000
vt 0.0000 0.0000
vt 0.0000 0.0000
vt 0.0000 0.0000
vt 0.0000 0.0000
vt 0.0000 0.0000
vt 0.0000 0.0000
vt 0.0000 0.0000
vt 0.0000 0.0000
vt 0.0000 0.0000
vt 0.0000 0.0000
vt 0.0000 0.0000
vt 0.0000 0.0000
vt 0.0000 0.0000
vt 0.0000 0.0000
vt 0.0000 0.0000
vt 0.0000 0.0000
vt 0.0000 0.0000
vt 0.0000 0.0000
vt 0.0000 0.0000
vt 0.0000 0.0000
vt 0.0000 0.0000
vt 0.0000 0.0000
vt 0.0000 0.0000
vt 0.0000 0.0000
vt 0.0000 0.0000
vt 0.0000 0.0000
vt 0.0000 0.0000
vt 0.0000 0.0000
vt 0.0000 0.0000
vt 0.0000 0.0000
vt 0.0000 0.0000
vt 0.0000 0.0000
vt 0.0000 0.0000
vn 0.0000 0.0000 -1.0000
vn 0.1935 0.0000 -0.9811
vn 0.3799 0.0000 -0.9250
vn 0.5524 0.0000 -0.8336
vn 0.7042 0.0000 -0.7100
vn 0.8293 0.0000 -0.5588
vn 0.9227 0.0000 -0.3854
vn 0.9805 0.0000 -0.1966
vn 1.0000 -0.0000 -0.0000
vn 0.9805 -0.0000 0.1966
vn 0.9227 -0.0000 0.3854
vn 0.8293 -0.0000 0.5588
vn 0.7042 -0.0000 0.7100
vn 0.5524 -0.0000 0.8336
vn 0.3800 -0.0000 0.9250
vn 0.1935 -0.0000 0.9811
vn 0.0000 -0.0000 1.0000
vn -0.1935 -0.0000 0.9811
vn -0.3800 -0.0000 0.9250
vn -0.5524 -0.0000 0.8336
vn -0.7042 -0.0000 0.7100
vn -0.8293 -0.0000 0.5588
vn -0.9228 -0.0000 0.3854
vn -0.9805 -0.0000 0.1967
vn -1.0000 -0.0000 -0.0000
vn -0.9805 0.0000 -0.1967
vn -0.9227 0.0000 -0.3854
vn -0.8293 0.0000 -0.5588
vn -0.7042 0.0000 -0.7100
vn -0.5524 0.0000 -0.8336
vn -0.3799 0.0000 -0.9250
vn 0.6037 0.6856 -0.4068
vn 0.6718 0.6856 -0.2806
vn -0.1935 0.0000 -0.9811
vn 0.2765 -0.6858 -0.6732
vn 0.1408 -0.6859 -0.7140
vn 0.1408 0.6859 -0.7140
vn 0.0000 0.6859 -0.7277
vn -0.1408 0.6859 -0.7140
vn -0.2765 0.6858 -0.6732
vn -0.4020 0.6858 -0.6067
vn -0.5125 0.6857 -0.5168
vn -0.6037 0.6856 -0.4067
vn -0.6718 0.6856 -0.2806
vn -0.7138 0.6855 -0.1432
vn -0.7281 0.6855 -0.0000
vn -0.7138 0.6855 0.1432
vn -0.6718 0.6856 0.2806
vn -0.6037 0.6856 0.4067
vn -0.5125 0.6857 0.5168
vn -0.4020 0.6858 0.6067
vn -0.2765 0.6858 0.6732
vn -0.1408 0.6859 0.7140
vn 0.0000 0.6859 0.7277
vn 0.1408 0.6859 0.7140
vn 0.2765 0.6858 0.6732
vn 0.4020 0.6858 0.6067
vn 0.5125 0.6857 0.5168
vn 0.6037 0.6856 0.4068
vn 0.6718 0.6856 0.2806
vn 0.7138 0.6855 0.1432
vn 0.7280 0.6855 -0.0000
vn 0.7138 0.6855 -0.1432
vn 0.5125 0.6857 -0.5168
vn 0.4020 0.6858 -0.6067
vn 0.2765 0.6858 -0.6732
vn 0.0000 -0.6859 -0.7277
vn 0.4020 -0.6858 -0.6067
vn 0.5125 -0.6857 -0.5168
vn 0.6037 -0.6856 -0.4068
vn 0.6718 -0.6856 -0.2806
vn 0.7138 -0.6855 -0.1432
vn 0.7280 -0.6855 -0.0000
vn 0.7138 -0.6855 0.1432
vn 0.6718 -0.6856 0.2806
vn 0.6037 -0.6856 0.4068
vn 0.5125 -0.6857 0.5168
vn 0.4020 -0.6858 0.6067
vn 0.2765 -0.6858 0.6732
vn 0.1408 -0.6859 0.7140
vn 0.0000 -0.6859 0.7277
vn -0.1408 -0.6859 0.7140
vn -0.2765 -0.6858 0.6732
vn -0.4020 -0.6858 0.6067
vn -0.5125 -0.6857 0.5168
vn -0.6037 -0.6856 0.4067
vn -0.6718 -0.6856 0.2806
vn -0.7138 -0.6855 0.1432
vn -0.7281 -0.6855 -0.0000
vn -0.7138 -0.6855 -0.1432
vn -0.6718 -0.6856 -0.2806
vn -0.6037 -0.6856 -0.4067
vn -0.5125 -0.6857 -0.5168
vn -0.4020 -0.6858 -0.6067
vn -0.2765 -0.6858 -0.6732
vn -0.1408 -0.6859 -0.7140
usemtl triangle.001
s 1
f 1/1/1 2/2/1 3/3/2 4/4/2
f 4/4/2 3/3/2 5/5/3 6/6/3
f 6/6/3 5/5/3 7/7/4 8/8/4
f 8/8/4 7/7/4 9/9/5 10/10/5
f 10/10/5 9/9/5 11/11/6 12/12/6
f 12/12/6 11/11/6 13/13/7 14/14/7
f 14/14/7 13/13/7 15/15/8 16/16/8
f 16/16/8 15/15/8 17/17/9 18/18/9
f 18/18/9 17/17/9 19/19/10 20/20/10
f 20/20/10 19/19/10 21/21/11 22/22/11
f 22/22/11 21/21/11 23/23/12 24/24/12
f 24/24/12 23/23/12 25/25/13 26/26/13
f 26/26/13 25/25/13 27/27/14 28/28/14
f 28/28/14 27/27/14 29/29/15 30/30/15
f 30/30/15 29/29/15 31/31/16 32/32/16
f 32/32/16 31/31/16 33/33/17 34/34/17
f 34/34/17 33/33/17 35/35/18 36/36/18
f 36/36/18 35/35/18 37/37/19 38/38/19
f 38/38/19 37/37/19 39/39/20 40/40/20
f 40/40/20 39/39/20 41/41/21 42/42/21
f 42/42/21 41/41/21 43/43/22 44/44/22
f 44/44/22 43/43/22 45/45/23 46/46/23
f 46/46/23 45/45/23 47/47/24 48/48/24
f 48/48/24 47/47/24 49/49/25 50/50/25
f 50/50/25 49/49/25 51/51/26 52/52/26
f 52/52/26 51/51/26 53/53/27 54/54/27
f 54/54/27 53/53/27 55/55/28 56/56/28
f 56/56/28 55/55/28 57/57/29 58/58/29
f 58/58/29 57/57/29 59/59/30 60/60/30
f 60/60/30 59/59/30 61/61/31 62/62/31
f 13/13/7 11/11/6 63/63/32 64/64/33
f 62/62/31 61/61/31 65/65/34 66/66/34
f 66/66/34 65/65/34 2/2/1 1/1/1
f 4/4/2 6/6/3 67/67/35 68/68/36
f 69/69/37 70/70/38 71/71/39 72/72/40 73/73/41 74/74/42 75/75/43 76/76/44 77/77/45 78/78/46 79/79/47 80/80/48 81/81/49 82/82/50 83/83/51 84/84/52 85/85/53 86/86/54 87/87/55 88/88/56 89/89/57 90/90/58 91/91/59 92/92/60 93/93/61 94/94/62 95/95/63 64/64/33 63/63/32 96/96/64 97/97/65 98/98/66
f 31/31/16 29/29/15 88/88/56 87/87/55
f 49/49/25 47/47/24 79/79/47 78/78/46
f 5/5/3 3/3/2 69/69/37 98/98/66
f 23/23/12 21/21/11 92/92/60 91/91/59
f 41/41/21 39/39/20 83/83/51 82/82/50
f 59/59/30 57/57/29 74/74/42 73/73/41
f 15/15/8 13/13/7 64/64/33 95/95/63
f 33/33/17 31/31/16 87/87/55 86/86/54
f 51/51/26 49/49/25 78/78/46 77/77/45
f 7/7/4 5/5/3 98/98/66 97/97/65
f 25/25/13 23/23/12 91/91/59 90/90/58
f 43/43/22 41/41/21 82/82/50 81/81/49
f 61/61/31 59/59/30 73/73/41 72/72/40
f 17/17/9 15/15/8 95/95/63 94/94/62
f 35/35/18 33/33/17 86/86/54 85/85/53
f 53/53/27 51/51/26 77/77/45 76/76/44
f 9/9/5 7/7/4 97/97/65 96/96/64
f 27/27/14 25/25/13 90/90/58 89/89/57
f 45/45/23 43/43/22 81/81/49 80/80/48
f 65/65/34 61/61/31 72/72/40 71/71/39
f 19/19/10 17/17/9 94/94/62 93/93/61
f 37/37/19 35/35/18 85/85/53 84/84/52
f 55/55/28 53/53/27 76/76/44 75/75/43
f 11/11/6 9/9/5 96/96/64 63/63/32
f 29/29/15 27/27/14 89/89/57 88/88/56
f 47/47/24 45/45/23 80/80/48 79/79/47
f 3/3/2 2/2/1 70/70/38 69/69/37
f 2/2/1 65/65/34 71/71/39 70/70/38
f 21/21/11 19/19/10 93/93/61 92/92/60
f 39/39/20 37/37/19 84/84/52 83/83/51
f 57/57/29 55/55/28 75/75/43 74/74/42
f 99/99/67 68/68/36 67/67/35 100/100/68 101/101/69 102/102/70 103/103/71 104/104/72 105/105/73 106/106/74 107/107/75 108/108/76 109/109/77 110/110/78 111/111/79 112/112/80 113/113/81 114/114/82 115/115/83 116/116/84 117/117/85 118/118/86 119/119/87 120/120/88 121/121/89 122/122/90 123/123/91 124/124/92 125/125/93 126/126/94 127/127/95 128/128/96
f 22/22/11 24/24/12 108/108/76 107/107/75
f 40/40/20 42/42/21 117/117/85 116/116/84
f 58/58/29 60/60/30 126/126/94 125/125/93
f 14/14/7 16/16/8 104/104/72 103/103/71
f 32/32/16 34/34/17 113/113/81 112/112/80
f 50/50/25 52/52/26 122/122/90 121/121/89
f 6/6/3 8/8/4 100/100/68 67/67/35
f 24/24/12 26/26/13 109/109/77 108/108/76
f 42/42/21 44/44/22 118/118/86 117/117/85
f 60/60/30 62/62/31 127/127/95 126/126/94
f 16/16/8 18/18/9 105/105/73 104/104/72
f 34/34/17 36/36/18 114/114/82 113/113/81
f 52/52/26 54/54/27 123/123/91 122/122/90
f 8/8/4 10/10/5 101/101/69 100/100/68
f 26/26/13 28/28/14 110/110/78 109/109/77
f 44/44/22 46/46/23 119/119/87 118/118/86
f 62/62/31 66/66/34 128/128/96 127/127/95
f 18/18/9 20/20/10 106/106/74 105/105/73
f 36/36/18 38/38/19 115/115/83 114/114/82
f 54/54/27 56/56/28 124/124/92 123/123/91
f 10/10/5 12/12/6 102/102/70 101/101/69
f 28/28/14 30/30/15 111/111/79 110/110/78
f 46/46/23 48/48/24 120/120/88 119/119/87
f 1/1/1 4/4/2 68/68/36 99/99/67
f 66/66/34 1/1/1 99/99/67 128/128/96
f 20/20/10 22/22/11 107/107/75 106/106/74
f 38/38/19 40/40/20 116/116/84 115/115/83
f 56/56/28 58/58/29 125/125/93 124/124/92
f 12/12/6 14/14/7 103/103/71 102/102/70
f 30/30/15 32/32/16 112/112/80 111/111/79
f 48/48/24 50/50/25 121/121/89 120/120/88
